<?xml version="1.0" encoding="utf-8"?><!-- Uploaded to: SVG Repo, www.svgrepo.com, Generator: SVG Repo Mixer Tools -->
<svg width="800px" height="800px" viewBox="0 0 64 64" xmlns="http://www.w3.org/2000/svg" stroke-width="3" stroke="#000000" fill="none"><path d="M34.34,24.1H25.65V55.53h9V41.13c0-3.82.72-7.49,5.43-7.49s4.72,4.34,4.72,7.73V55.53h9V39.46c0-7.76-1.65-14.92-10.81-14.92-3.38-.13-6.65.49-8.47,3.25a.11.11,0,0,1-.21-.06Z" stroke-linecap="round"/><path d="M10.92,24.1H20V55.53H10.92Z" stroke-linecap="round"/><path d="M15.44,8.47a5.27,5.27,0,1,0,5.25,5.29v0A5.25,5.25,0,0,0,15.44,8.47Z" stroke-linecap="round"/></svg>